<?xml version="1.0" standalone="no"?><!DOCTYPE svg PUBLIC "-//W3C//DTD SVG 1.1//EN" "http://www.w3.org/Graphics/SVG/1.1/DTD/svg11.dtd"><svg class="icon" width="200px" height="200.00px" viewBox="0 0 1024 1024" version="1.1" xmlns="http://www.w3.org/2000/svg"><path fill="#ffffff" d="M512 64a448 448 0 1 0 448 448A448 448 0 0 0 512 64z m0 853.333333a405.333333 405.333333 0 1 1 405.333333-405.333333 405.333333 405.333333 0 0 1-405.333333 405.333333zM512 724.053333m-64 0a64 64 0 1 0 128 0 64 64 0 1 0-128 0ZM512 234.666667a85.333333 85.333333 0 0 0-85.333333 85.333333l72.96 273.706667a12.8 12.8 0 0 0 24.746666 0L597.333333 320a85.333333 85.333333 0 0 0-85.333333-85.333333z" /></svg>