<?xml version="1.0" standalone="no"?><!DOCTYPE svg PUBLIC "-//W3C//DTD SVG 1.1//EN" "http://www.w3.org/Graphics/SVG/1.1/DTD/svg11.dtd"><svg class="icon" width="200px" height="194.86px" viewBox="0 0 1051 1024" version="1.1" xmlns="http://www.w3.org/2000/svg"><path fill="#ffffff" d="M195.257387 456.918527a13.064237 13.064237 0 0 0-13.770413 12.71115v88.271874a13.417325 13.417325 0 0 0 13.770413 13.064238h84.387912a13.770412 13.770412 0 0 0 13.770412-13.064238v-88.271874a13.417325 13.417325 0 0 0-13.770412-12.71115zM472.077985 363.35034H388.396248a13.417325 13.417325 0 0 0-13.770412 12.71115v275.408248a13.417325 13.417325 0 0 0 13.770412 12.71115h84.387912a13.064237 13.064237 0 0 0 13.770413-12.71115v-275.408248a13.064237 13.064237 0 0 0-14.476588-12.71115zM857.296446 598.153526a13.417325 13.417325 0 0 0 13.770413-12.71115v-141.234999a13.770412 13.770412 0 0 0-13.770413-13.064238h-84.387912a13.417325 13.417325 0 0 0-13.770412 13.064238v141.234999a13.064237 13.064237 0 0 0 13.770412 12.71115zM678.281085 738.329263V289.201965a13.064237 13.064237 0 0 0-13.770413-12.71115h-84.034825a13.064237 13.064237 0 0 0-13.770412 12.71115v449.127298a13.064237 13.064237 0 0 0 13.770412 12.71115h84.034825a13.064237 13.064237 0 0 0 13.770413-12.71115zM1004.180846 0.023304h-306.479949a24.716125 24.716125 0 0 0-24.716125 25.069212v50.8446a24.716125 24.716125 0 0 0 24.716125 25.069212h217.501899a27.540825 27.540825 0 0 1 28.247 26.83465v211.852499a25.069212 25.069212 0 0 0 25.069212 25.069213h57.90635a25.069212 25.069212 0 0 0 25.069212-25.069213V44.159241A45.901375 45.901375 0 0 0 1004.180846 0.023304zM24.716125 364.76269h58.259437a24.716125 24.716125 0 0 0 25.069213-24.716125v-211.852499a27.540825 27.540825 0 0 1 28.246999-26.83465H353.087498a24.716125 24.716125 0 0 0 24.716125-24.716125V24.739429A24.716125 24.716125 0 0 0 353.087498 0.023304H46.960637A45.548287 45.548287 0 0 0 0 44.159241v295.887324a24.716125 24.716125 0 0 0 24.716125 24.716125zM1026.425358 659.237663h-57.90635a25.069212 25.069212 0 0 0-25.069212 25.069213v211.852499a27.540825 27.540825 0 0 1-28.247 26.83465h-217.501899a24.716125 24.716125 0 0 0-24.716125 25.069212v50.8446a24.716125 24.716125 0 0 0 24.716125 25.069212h306.479949a45.901375 45.901375 0 0 0 47.313724-44.135937v-295.534236a25.069212 25.069212 0 0 0-25.069212-25.069213zM353.087498 922.994025H136.291774a27.540825 27.540825 0 0 1-28.246999-26.83465v-211.852499a25.069212 25.069212 0 0 0-25.069213-25.069213H25.069212a25.069212 25.069212 0 0 0-25.069212 25.069213v295.534236A45.548287 45.548287 0 0 0 46.960637 1023.977049H353.087498a25.069212 25.069212 0 0 0 25.069213-25.069212v-50.8446a25.069212 25.069212 0 0 0-25.069213-25.069212z"  /></svg>