<?xml version="1.0" standalone="no"?><!DOCTYPE svg PUBLIC "-//W3C//DTD SVG 1.1//EN" "http://www.w3.org/Graphics/SVG/1.1/DTD/svg11.dtd"><svg class="icon" width="200px" height="200.00px" viewBox="0 0 1024 1024" version="1.1" xmlns="http://www.w3.org/2000/svg"><path fill="#ffffff" d="M648.533333 113.777778v-28.444445c0-17.066667 11.377778-28.444444 28.444445-28.444444s28.444444 11.377778 28.444444 28.444444V113.777778H796.444444c62.577778 0 113.777778 51.2 113.777778 113.777778v682.666666c0 62.577778-51.2 113.777778-113.777778 113.777778H227.555556c-62.577778 0-113.777778-51.2-113.777778-113.777778V227.555556c0-62.577778 51.2-113.777778 113.777778-113.777778h79.644444v-28.444445c0-17.066667 11.377778-28.444444 28.444444-28.444444s28.444444 11.377778 28.444445 28.444444V113.777778h113.777778v-28.444445c0-17.066667 11.377778-28.444444 28.444444-28.444444s28.444444 11.377778 28.444445 28.444444V113.777778h113.777777zM227.555556 170.666667c-34.133333 0-56.888889 22.755556-56.888889 56.888889v682.666666c0 34.133333 22.755556 56.888889 56.888889 56.888889h568.888888c34.133333 0 56.888889-22.755556 56.888889-56.888889V227.555556c0-34.133333-22.755556-56.888889-56.888889-56.888889H227.555556z m85.333333 113.777777c17.066667 0 28.444444 11.377778 28.444444 28.444445s-11.377778 28.444444-28.444444 28.444444-28.444444-11.377778-28.444445-28.444444 11.377778-28.444444 28.444445-28.444445z m0 170.666667c17.066667 0 28.444444 11.377778 28.444444 28.444445s-11.377778 28.444444-28.444444 28.444444-28.444444-11.377778-28.444445-28.444444 11.377778-28.444444 28.444445-28.444445z m0 170.666667c17.066667 0 28.444444 11.377778 28.444444 28.444444s-11.377778 28.444444-28.444444 28.444445-28.444444-11.377778-28.444445-28.444445 11.377778-28.444444 28.444445-28.444444z m0 170.666666c17.066667 0 28.444444 11.377778 28.444444 28.444445s-11.377778 28.444444-28.444444 28.444444-28.444444-11.377778-28.444445-28.444444 11.377778-28.444444 28.444445-28.444445z m113.777778-512h284.444444c17.066667 0 28.444444 11.377778 28.444445 28.444445s-11.377778 28.444444-28.444445 28.444444h-284.444444c-17.066667 0-28.444444-11.377778-28.444445-28.444444s11.377778-28.444444 28.444445-28.444445z m0 170.666667h284.444444c17.066667 0 28.444444 11.377778 28.444445 28.444445s-11.377778 28.444444-28.444445 28.444444h-284.444444c-17.066667 0-28.444444-11.377778-28.444445-28.444444s11.377778-28.444444 28.444445-28.444445z m0 170.666667h284.444444c17.066667 0 28.444444 11.377778 28.444445 28.444444s-11.377778 28.444444-28.444445 28.444445h-284.444444c-17.066667 0-28.444444-11.377778-28.444445-28.444445s11.377778-28.444444 28.444445-28.444444z m0 170.666666h284.444444c17.066667 0 28.444444 11.377778 28.444445 28.444445s-11.377778 28.444444-28.444445 28.444444h-284.444444c-17.066667 0-28.444444-11.377778-28.444445-28.444444s11.377778-28.444444 28.444445-28.444445z"  /></svg>